<svg width="128" height="128" viewBox="0 0 128 128" fill="none" xmlns="http://www.w3.org/2000/svg">
<rect width="128" height="128" fill="#0051FF"/>
<path d="M18.5 108.9H25.5V115.9H18.5V108.9Z" fill="#090C36"/>
<path d="M34.268 102.524H45.052V106.556H34.268V102.524ZM34.652 111.74H46.844V115.9H29.5V93.5H46.428V97.66H34.652V111.74Z" fill="#090C36"/>
<path d="M50.9688 115.9V93.5H55.2568L68.4728 109.628H66.3927V93.5H71.5127V115.9H67.2568L54.0088 99.772H56.0888V115.9H50.9688Z" fill="#090C36"/>
<path d="M83.4388 115.9L73.7747 93.5H79.3747L87.8228 113.34H84.5267L93.1028 93.5H98.2548L88.5587 115.9H83.4388Z" fill="#090C36"/>
<path d="M97.19 115.9L106.822 102.62V106.396L97.606 93.5H103.494L109.862 102.492L107.398 102.524L113.67 93.5H119.302L110.15 106.172V102.46L119.846 115.9H113.862L107.27 106.396H109.638L103.142 115.9H97.19Z" fill="#090C36"/>
</svg>
